<?xml version="1.0" standalone="no"?><!DOCTYPE svg PUBLIC "-//W3C//DTD SVG 1.1//EN" "http://www.w3.org/Graphics/SVG/1.1/DTD/svg11.dtd"><svg t="1639724394320" class="icon" viewBox="0 0 1024 1024" version="1.1" xmlns="http://www.w3.org/2000/svg" p-id="2456" xmlns:xlink="http://www.w3.org/1999/xlink" width="16" height="16"><defs><style type="text/css"></style></defs><path d="M547.2 736v-53.44a139.2 139.2 0 0 0 37.44-9.6 97.92 97.92 0 0 0 32-20.48 84.16 84.16 0 0 0 20.16-30.4 110.08 110.08 0 0 0 6.4-37.76 93.44 93.44 0 0 0-7.68-40.32 96 96 0 0 0-21.12-29.12 129.92 129.92 0 0 0-29.12-19.84c-10.88-4.8-21.76-9.6-32-13.44l-32-10.56a196.48 196.48 0 0 1-26.88-10.56 61.12 61.12 0 0 1-17.28-12.16 21.44 21.44 0 0 1-5.44-14.72 26.88 26.88 0 0 1 2.24-11.2 22.72 22.72 0 0 1 7.36-9.28 37.76 37.76 0 0 1 14.4-7.04 87.68 87.68 0 0 1 41.28 0 96 96 0 0 1 16.96 5.12 70.4 70.4 0 0 1 14.72 7.36 82.24 82.24 0 0 1 11.84 8.96 34.56 34.56 0 0 0 8.96 6.72l4.8-4.8 5.12-4.8 23.04-23.36 5.44-5.44 5.12-5.12v-1.92a104.96 104.96 0 0 0-37.44-30.4 160 160 0 0 0-46.72-14.4V288H489.6v53.44a130.56 130.56 0 0 0-35.2 10.24 87.04 87.04 0 0 0-29.12 20.8 79.68 79.68 0 0 0-17.28 28.16 91.84 91.84 0 0 0-5.76 32 86.08 86.08 0 0 0 29.44 67.2 114.88 114.88 0 0 0 29.44 18.56 305.6 305.6 0 0 0 32 13.12l32 10.88a158.08 158.08 0 0 1 26.56 10.88 64 64 0 0 1 17.6 13.44 25.6 25.6 0 0 1 5.76 17.28 32 32 0 0 1-12.48 27.2 84.16 84.16 0 0 1-44.48 9.6 74.88 74.88 0 0 1-21.12-2.88 94.08 94.08 0 0 1-19.52-7.04 102.4 102.4 0 0 1-16.96-10.88 100.16 100.16 0 0 1-15.04-13.44 118.4 118.4 0 0 0-9.28-7.68 26.56 26.56 0 0 0-5.12-2.88l-5.76 5.76-5.76 6.08-17.92 17.6-6.4 6.08-5.44 5.44a23.04 23.04 0 0 0 2.88 6.4 88.32 88.32 0 0 0 16.64 20.48 135.04 135.04 0 0 0 23.36 17.6 171.52 171.52 0 0 0 28.8 13.76 192 192 0 0 0 28.16 7.04V736z" p-id="2457" fill="#4147c4"></path><path d="M342.4 189.76a352 352 0 0 1 272-27.52 357.12 357.12 0 0 1 202.88 160l-88.96 34.88 162.88 97.92 66.88-188.16-80.64 32a420.48 420.48 0 0 0-244.16-197.44 416 416 0 0 0-320 32A428.48 428.48 0 0 0 118.4 352l59.52 23.68a363.84 363.84 0 0 1 164.48-185.92zM683.84 837.44a352 352 0 0 1-272.64 22.4 358.4 358.4 0 0 1-209.28-180.48L281.28 640l-163.2-86.72-52.16 193.92 78.72-39.04a422.4 422.4 0 0 0 376.96 233.28 413.44 413.44 0 0 0 192-47.04 424.96 424.96 0 0 0 214.4-261.44l-61.44-17.92a360.64 360.64 0 0 1-182.72 222.4z" p-id="2458" fill="#4147c4"></path></svg>